<?xml version="1.0" encoding="utf-8"?><svg xmlns="http://www.w3.org/2000/svg" xmlns:xlink="http://www.w3.org/1999/xlink"><symbol viewBox="0 0 40 48" id="doc" xmlns="http://www.w3.org/2000/svg"><g fill="none" fill-rule="evenodd"><path fill="#D4D4D4" d="M5.156 40.722v5.4A1.895 1.895 0 0 0 7.066 48h31.033A1.887 1.887 0 0 0 40 46.122V1.878C40 .843 39.147 0 38.1 0H7.065c-1.055 0-1.9.843-1.909 1.887v23.46H1.91C.853 25.358 0 26.192 0 27.236v11.608c0 1.035.853 1.879 1.9 1.879h3.256zM1.91 38.843V27.235h28.72v11.608H1.91zm11.624-18.156h18.09a.94.94 0 0 0 .95-.94.94.94 0 0 0-.95-.938h-18.09c-.52 0-.95.417-.95.939s.43.939.95.939zm0-6.052h18.09a.94.94 0 0 0 .95-.94.94.94 0 0 0-.95-.938h-18.09c-.52 0-.95.417-.95.939 0 .521.43.939.95.939zm0-6.113h18.09c.528 0 .95-.426.95-.94a.948.948 0 0 0-.95-.947h-18.09c-.52 0-.95.426-.95.948 0 .513.43.939.95.939zm-6.467 32.2H30.63a1.9 1.9 0 0 0 1.91-1.879V27.235a1.908 1.908 0 0 0-1.91-1.887H7.066V1.878h31.033v44.244H7.066v-5.4z"/><path fill="#314391" fill-rule="nonzero" d="M10.92 29.948c-.256-.087-.581-.122-.968-.13H7.286v6.095h2.666c.941 0 1.636-.383 2.085-1.14.334-.564.493-1.251.493-2.051a4.2 4.2 0 0 0-.115-1.018 2.82 2.82 0 0 0-.44-.982 2.122 2.122 0 0 0-1.056-.774zm-1.18 4.904H8.544V30.87H9.74c.59 0 .986.173 1.18.504.202.33.299.809.299 1.426 0 .452-.07.835-.203 1.165-.237.592-.668.887-1.276.887zm8.544.522c.634-.591.942-1.417.942-2.522 0-1.113-.308-1.956-.942-2.513-.466-.478-1.135-.713-2.024-.713-.888 0-1.566.235-2.032.713-.634.557-.95 1.4-.95 2.513 0 1.105.316 1.93.95 2.522.466.47 1.144.704 2.032.704.89 0 1.558-.235 2.024-.704zm-.8-.93c-.308.373-.713.565-1.224.565-.519 0-.923-.192-1.231-.566-.317-.365-.458-.904-.458-1.59 0-.688.14-1.21.458-1.583.308-.374.712-.557 1.231-.557.51 0 .916.183 1.224.557.29.373.448.904.448 1.582 0 .687-.158 1.226-.448 1.591zm6.625-2.818l.062.2h1.293a2.173 2.173 0 0 0-.079-.435 3.1 3.1 0 0 0-.202-.478 2.193 2.193 0 0 0-.344-.452 1.774 1.774 0 0 0-.501-.4 2.567 2.567 0 0 0-.686-.278 3.48 3.48 0 0 0-.898-.105c-.229 0-.466.026-.695.079-.238.06-.449.139-.66.252a2.272 2.272 0 0 0-.572.426 2.297 2.297 0 0 0-.466.608 3.044 3.044 0 0 0-.308.81 4.05 4.05 0 0 0-.115 1.017c0 .487.062.921.194 1.313.132.4.308.739.554 1.017.238.27.546.496.898.635.352.156.765.235 1.223.235.325 0 .633-.044.933-.14.29-.095.554-.226.783-.417.228-.183.43-.417.598-.696.158-.278.273-.608.343-.99H24.18c-.026.095-.07.216-.123.338a1.27 1.27 0 0 1-.22.374 1.372 1.372 0 0 1-.413.304 1.637 1.637 0 0 1-.669.122c-.229 0-.449-.052-.633-.148a1.23 1.23 0 0 1-.476-.4 2.006 2.006 0 0 1-.308-.66 3.473 3.473 0 0 1-.096-.887 3.4 3.4 0 0 1 .07-.783 2.01 2.01 0 0 1 .22-.574c.08-.148.176-.278.282-.365.114-.096.228-.174.334-.235a1.34 1.34 0 0 1 .334-.104 1.6 1.6 0 0 1 .273-.026c.194 0 .343.017.484.043.14.044.255.087.352.148.106.06.185.13.255.191.053.078.115.157.159.235.044.078.079.148.105.226z"/></g></symbol><symbol viewBox="0 0 40 48" id="pdf" xmlns="http://www.w3.org/2000/svg"><g fill="none" fill-rule="evenodd"><path fill="#D4D4D4" d="M7.014 25.348V1.887h30.808v44.235H7.014v-5.4h23.392a1.893 1.893 0 0 0 1.896-1.879V27.235a1.9 1.9 0 0 0-1.896-1.887H7.014zm11.522-12.644h-4.14V8.617h4.14v4.087zm1.895.94V7.677a.953.953 0 0 0-.952-.948h-6.027a.957.957 0 0 0-.664.279.917.917 0 0 0-.28.67v5.964c0 .244.097.487.28.661.175.174.42.279.664.279h6.027a.926.926 0 0 0 .673-.279.948.948 0 0 0 .28-.66zm3.59-5.035h7.337a.949.949 0 0 0 .944-.94.95.95 0 0 0-.944-.947h-7.337a.95.95 0 0 0-.943.948c0 .513.428.939.943.939zm0 6.087h7.337a.943.943 0 0 0 .944-.94.943.943 0 0 0-.944-.939h-7.337a.943.943 0 0 0-.943.94c0 .521.428.939.943.939zM13.4 20.687h17.96a.943.943 0 0 0 .943-.94.943.943 0 0 0-.944-.938H13.4a.937.937 0 0 0-.943.939c0 .522.42.939.943.939zM5.12 40.722v5.4A1.888 1.888 0 0 0 7.014 48h30.808a1.88 1.88 0 0 0 1.887-1.878V1.887A1.888 1.888 0 0 0 37.822 0H7.014A1.895 1.895 0 0 0 5.12 1.887v23.46H1.895A1.895 1.895 0 0 0 0 27.236v11.608c0 1.035.847 1.879 1.895 1.879H5.12zm-3.224-1.879V27.235h28.511v11.608H1.896z"/><path fill="#E42127" fill-rule="nonzero" d="M12.648 33.287c.367-.296.542-.8.542-1.522 0-.652-.175-1.139-.542-1.46-.375-.314-.865-.47-1.485-.47H8.482v6.095h1.275v-2.19h1.31c.682 0 1.206-.149 1.581-.453zm-.978-2.191c.166.139.244.365.244.678 0 .322-.078.548-.244.696-.175.139-.402.217-.716.217H9.757v-1.791h1.197c.314 0 .541.06.716.2zm6.106-1.122c-.262-.087-.577-.13-.961-.14h-2.656v6.096h2.656c.934 0 1.616-.382 2.061-1.13.332-.574.498-1.252.498-2.06a4.26 4.26 0 0 0-.122-1.018 2.678 2.678 0 0 0-.437-.983 1.986 1.986 0 0 0-1.04-.765zm-1.18 4.904h-1.188v-3.982h1.188c.586 0 .979.165 1.18.495.192.33.288.818.288 1.435 0 .444-.07.826-.201 1.157-.236.59-.655.895-1.267.895zm8.115-3.956v-1.079h-4.367v6.087h1.284v-2.556h2.708v-1.061h-2.708v-1.391h3.083z"/></g></symbol></svg>